<svg version="1.2" xmlns="http://www.w3.org/2000/svg" xmlns:xlink="http://www.w3.org/1999/xlink" viewBox="0 0 1452 865" width="1452" height="865">
	<title>china-svg</title>
	<style>
		.s5 { opacity: .5;fill: #eeeeee;stroke: #3388ff;stroke-linecap: round;stroke-linejoin: round;stroke-opacity: 0;stroke-width: 3 } 
	</style>
	<image width="560" height="522" xlink:href="/assets/china_all.png"  transform="matrix(1 0 0 1 445 182)"></image>
	<g id="Layer">
		<path name="北京市" fill-rule="evenodd" class="s5" d="m832 373l2 2-5 1 1 3-2 2-1-1-2 2h-4l-3-3v-3l3-1 1-2-2-2 3-1 5-5 2 4 5 1h-2z"/>
		<path name="天津市" fill-rule="evenodd" class="s5" d="m836 383l3 1-2 2 1 1-2 4-8-2 2-4-1-4 3-1v-4l2-2 3 3h-2v2l3 3-1 1z"/>
		<path name="河北省" fill-rule="evenodd" class="s5" d="m830 369l-2-4-5 5-3 1 2 2-4 4v3l2 2h6l2-2 2 5-2 4 3 2h4l3 3-5 5h-4l-3 4-1-1-3 2-1 4-4 4v4l-1-1-2 2-9-3-3-3 3-4-1-1 3-6-1-3-3-2v-4l3-5 4-2v-6l-4-2 5-3h-2l-4-8v-4l3-1 2-6h2l2 2v3l3 1v-2l5-2h6l3-6 6-2 2 4-1 1 2 2 1-1v8l8 1-3 3v2l3 3h2l2 6-4 2v3l-7 6-7-9v-2h2l-5-5 2-2zm2 11h-2l-1-3 3-1zm5 3h-1zm8 2v1z"/>
		<path name="山西省" fill-rule="evenodd" class="s5" d="m776 428l3-9-2-12 4-6-3-3v-2l3-3 3-10 3-3 2 1 5-8 2 2 1-2 3-1 3 1 5-4 1 4h2l-5 3 4 3 1 3-2 4-5 1 1 3-2 4 3 3 1 5-3 5 1 1-3 2 2 4-1 7-6 4h-6v2l-1-1-3 3-10 2z"/>
		<path name="内蒙古自治区" fill-rule="evenodd" class="s5" d="m672 347l13 2h21l7 5 2-1 4 3 11 1 1 2 3 1 11-7 9-3 11 1 12-4 5-6 8-4-4-8 3-8h5l3 3 6 1 4-2 5-6h8l5-4-1-1 5-6h4l2-3 2 1 8-3 2 2 5 1 2-2-1-5-10-10-5-1-4 5-9-3-3 3-3-3v-3l2-1v-4l7-16 8 4 13-7 1-3h-2l3-6-1-1 5-7-1-1 7-7-1-7h-5v-2l8-8 5 1 1 3-4 6 4 4 3-3 3 3h2l-1 5 3 7h15v-2l3-2 6 8-7 15 1 8-4 2-2 12-2-6-6 7-8 5-1 3 4 4v2l2 1 2-2-1-1h2l1 3-5 2 1 4-3 2v4l-3-3-3 1-2-2-1 3 5 7-2 4 2 7 7-4 3 9v2h-2l3 3v2l-6 4-3-1-6 4h-4l-3 3-1-1-6 6v-2l-5-5-2 2 2 2v6l-2 2-7-1v-8l-1 1-2-2 1-1-2-4-3 2h-4v4l-3 2-1-1-3 3-2-2-5 4-3-1 1-3-2-2h-2l-2 6-3 1 2 10-4 2-3-1-4 3-2-2-6 8-1-1-3 3-2-2-3 3h-2l-2-2 1 1-2 2-1-1 1 1-8 9 1 3-3 1-1 3h-5v-2l-5-1v-2h-4l-3-2 4-6v-2l-3-3-3 1v2l-1-1-2 4v8l-3 3-9 3-8-4v-6l4-2 3-5-2-4-5 1-4 3-4-2-5 2 2 2-2 2h-2l-3-3h-3v-4l-10-5 5-4 1-4-2-3h-7v2l-1-1-2 2h-4v-3l-6-6 2-2-5-13z"/>
		<path name="辽宁省" fill-rule="evenodd" class="s5" d="m875 382l-6 5 1 1-1-1-5 3 2-4 1 1v-2l1 1v-2l-4-2 3-2-1-1 5-4-1-1 3-3-4-4h-5l-5 5v2l-6 3-2-6h-2l-3-3v-3l4-5v-5l-2-2 2-2 5 5v2l10-8h4l3-3 2 1v-2h7l-1-1 3-1 2-5 5 4v3l3-3 3 5v4l2 2 1-1-2 2v4h2l-1 1 3 3v4l-6 5-1-1-7 8h-4zm1 2l1 1zm1 3l-1-1zm2-6l-1 1zm-4 3v1zm9-5h1z"/>
		<path name="吉林省" fill-rule="evenodd" class="s5" d="m930 350l-3 5h-8l2 7-7-1-4-4-6 9-3 1v-4l-3-3 1-1h-2v-4l2-2-1 1-2-2-2-8-1-1-2 3-2-2v-3l-1 1-3-3-2 1-2-2h2v-2l-3-9-5 4-2-1-2-8 2-2-2-5-3-2 1-3 2 2 3-1 3 3v-4l4-3h4l2 2v4l4 4 3-1 2 2 4-2 2 4h8l2 2-1 5 3-1 3 6 3-1-1-1 3-3 1 5 4 6h2l1-3 4-2 2 2 2-2v4l8 3-1 3-3 3-4 1 2 1v2l-4-6h-2l-2 7z"/>
		<path name="黑龙江省" fill-rule="evenodd" class="s5" d="m880 307l-1-4 5-1v-2l-1 1-1-2v2l-1-1-2 2-5-7 1-3 3-1 11-11 2 6 2-13 4-2-1-8 5-7 2-8-7-7-2 4-15 1-3-9 1-3-4-4-3 3h-2l-1-3-3-1 5-6-2-4 1-1 15-2 10 6h6l2 2-1 1 4 2-1 1 4 8-1 1 3 4-1 1 2 1-1 3h2l-1 3 3 3 1 7h2v7l2 2 6-1 3 3 3-1 7 7h4l-2 3 3 5-2 2 4 5 11-1 2-2-1-1 1 1 3-3 16-4-3 2v8l-5 5 1 1-3 8 1 1-7 11v4l-1 1-9-3-7 5 2 9-1 7-6-3v-4l-2 2-2-2-5 3v2h-2l-4-6-1-5-3 2 1 3h-2l-4-6-3 1 1-5-2-2h-8l-2-4-4 2-2-2-3 1-4-5v-4h-4z"/>
		<path name="上海市" fill-rule="evenodd" class="s5" d="m864 461h2l5 5-5 3-4-4zm7 0h-4l-3-3 1-1 5 3zm-2 2l-2-2zm0-1l3 1zm-1-1h-1zm2 3v-1z"/>
		<path name="江苏省" fill-rule="evenodd" class="s5" d="m836 432l2-2 2 3h2l3-6 3-1 2 4 8 6 4 13 8 8v3l-5-3-1 2 2 1-7 8-6-4h-4l1-1h-6l2-3h-2v-2l-1 1-2-2 3-4-1-3 4 2 1-3-2-2-4 2-2-4h-2l1-5h-2l-2-4h-3l-7-6 4-2 3 5 1-1z"/>
		<path name="浙江省" fill-rule="evenodd" class="s5" d="m842 487l-3-3v-2l7-7-1-1 2-2 3-1-2-2 3-1 2-4 6 4 3-3 3 3-2 2 5 5 4 1-3 2 2 4-3 1v8l-4 2-1-1 1 3-4 2-1 4-2-3-4 1-1-3-4 3-3-1v-6l-3-1zm29-14l2 1v2l-1-1zm1 0v1zm0-1l1 1zm1 1v-1zm-3 9l1 1zm-1 4h1zm4-10v1zm-3-8l1 1zm2 10l-1-1zm2-3v1zm-5 0l1-1zm2 8v-1zm0-6v1zm2 1v-1zm-10 16l1-1zm1 0l1-1zm8-19h1zm-9 19v-1z"/>
		<path name="安徽省" fill-rule="evenodd" class="s5" d="m827 434h-2l-1-2 2-1 5 5h4l2 2-1 2h4l-2 5h2l2 4 4-2 2 2-1 3-4-2 1 3-2 4 4 4-2 2h6l-1 1 3 1-2 4h-2l2 2-5 3 1 1-4 5-7-1-1-3h-2l-3 3-1-1 2-2-3-2v2l-3 1-4-8 3-4h-2l-4-4 3-3h2v-7h-6v-2l-3-3 4-2 1-3h2v-5l4 4 4-2-1-1zm18 27h1z"/>
		<path name="福建省" fill-rule="evenodd" class="s5" d="m844 522l1 1-2 2-4-1 1 3-7 6-3-3-1-7-3 1 1-1-2-2h-4l2-8 3-2 2-4-1-3 5-5-1-2 3-3 3 1 4-2v-2l3-1 2 8 3 1 2-3 2 4h5v2l-3 3 1 1-3 1 2-2-1-1v2h-2l2 2-2 2v4h-2l4 2h-6v2h2l-3 1 1 1-2-2 1 3zm-2 3l-1 1zm8-6l1-1zm4-9v-1zm-14 16v-1zm0-1l-1-1zm12-15h-1zm0 5v-1zm0-9l1-1z"/>
		<path name="江西省" fill-rule="evenodd" class="s5" d="m839 484l3 4v4l-5 3-3-1-3 3 1 3-5 4 1 3-5 7-2 9-1 1-3-2-7 3-2-2 4-5-6-1 2-8h-2l1-2-3-5 1-3h-2l1-4 4-4v-5l-2-2 3-3h4l3-3h2v-2l4 2 6-4 2 2-2 2 1 1 3-3h2l1 3h4l1 2z"/>
		<path name="山东省" fill-rule="evenodd" class="s5" d="m820 432l-7-6 8-8h2v-2l-6 4v-9l5-5v-2l3-1-1-1 1 1v-2l1 1 3-3h4l5-5 5 3 3-1 3 3v2l-3 1 3 4h4v-2l4-3-1-1 4-1 6 2v2h10l-3 6-3-1-8 4-1-1 1 3-1-1-1 3-3 1v-2 2l-7 7v2l-4 1-2 2 1 1h-2l-2 3-3-3-2 2h-4l-3-5-3 1-1 3zm40-34h1zm3 15h-1zm-2-17v-1zm1-2v-1zm-6 26v-1zm4-22l-1-1z"/>
		<path name="河南省" fill-rule="evenodd" class="s5" d="m795 453h-4l-7-5-7-16 13-5 1-3 7 1 5-4 2-7 9 3 2-2 2 2-1 3 1-2 5-1-10 8 1 3 1-1 1 2h2v2h6l4 7-4 2-4-4-3 9-4 2 3 1 2 4h4v6l-4 1-1 3-2-2-3 1-1-2h-5l-2-7-2 2-3-2-3 1zm9 0v1z"/>
		<path name="湖北省" fill-rule="evenodd" class="s5" d="m787 451l1-1 3 3h13l2 6 5-1 1 3 3-1 4 4 4 1-2 2v4l2 2v4l-1 1-3-2-6 4 1 1h-6l-3 3-2-2v-6l-4 4-1-3-2 2h-4l-3-3-10-2v4l-7-1v2l-1-1-2 2-1 3-1-3-2 1 1-1-3-3h-2l2-4-2-3h8l7-4-1-4-4-3-1-5 1-4 3 1 1-3h-2l-3-3h13zm10 26h1z"/>
		<path name="湖南省" fill-rule="evenodd" class="s5" d="m790 522l-4 1v-4l-4 2 4-9h-2l1-3h-6l-2 3-4-2v3l-5-5 1-3h2v-2l-2-2-5 1 3-2v-2l1 1 2-2-2-4v-11l2-4h8v-4l11 2 3 3h4l2-2 1 3 4-3 1 7 1-1 3 3v4l-2 2 1 1-3 1-1 3v2h2v6l2 2-1 3h2l-2 1v4l-3 3-4-2-2 2 1 3h-2v-2h-4l-2 4z"/>
		<path name="广东省" fill-rule="evenodd" class="s5" d="m800 548h-8l-2 2-12 3-2 4 3 3-2 2h-4l-2-6 2-4-1-3 1 1 2-3 1 1 1-3h2l1-3 3-1 3-4-1-3 5-5v-6l2-2-1-1 4-1 2 2 2-2-1-1 2-2h6v2l5-1 1 2-4 4 2 2 8-3 1 2h2v-3h4l2 2-1 1 3-1 3 10-3 1v2l-3 3h-6l-2 2-2-2-3 3-2-2-1 3-6-2-1 4zm-21 5v2l-1-1zm50 4l1 1-0.4 0.2zm0.6 1.2l0.4 0.8h-2zm-32.6-9.2l-1 1zm-3 1h1zm0 0v-1zm-16 5h-2 3zm30-8h-1zm14 7l1 1z"/>
		<path name="广西壮族自治区" fill-rule="evenodd" class="s5" d="m773 513l1-3 2 2 3-3h5v4h2l-4 7 1 1 2-2 1 5 3-2 2 4-2 2 1 2-4 2v6l-6 5v2l-3 1v2l-1-1-3 3-1-1v2l-1-1-3 2h-2v-2l-3-1-5 2-11-4 1-2-2-1 2-4-2-2-5 1-3-3 3-3h2l1-3-2-2-5 1-7-5h2l3-4 7 3 7-4 2-4 6 4h2l1-3h2l1 2 1-3 1 1 2-2h-2l1-1 3 1 1-3z"/>
		<path name="海南省" fill-rule="evenodd" class="s5" d="m775 563h5l3 4-4 4v3l-8 6-6-2-2-2v-6l5-5 7-1zm31 104l4-3 1 1-2 2zm-36 1h1l-1 1zm2-1l2 1h-3zm28-4l1-1zm-14-74l1-1zm50 16v-1zm-48-9h1zm-1 0h1zm19 60l1 1zm-18-62l1-1zm4-5l1 1zm29 61v-1zm-10-2l1-1zm-7 19l1-1zm-10-69l1-1zm16 42h1zm16 4h1zm-40-50h1zm32 54h1zm-8 15l1-1zm6-3l1 1zm-11 4l1-1zm-2-8l1-1zm9-17l1-1zm-1-3v-1zm-5 20v1zm-32 9v-1zm54-30l1 1zm-34-41l1-1zm-6 3h1zm17 50v-1zm22 2v1zm-17-8h1zm-32 22l1-1zm38-4h1zm17-14v-1zm-15 15l1-1zm-31-2h1zm27-20h1zm9 9v-1zm10-5v-1zm-39 39h1zm17-24v-1zm2 7v-1zm20-17v-1zm-38 40h1zm-3-31h1zm5 9h1zm-3 18v-1zm20-15v-1zm0-71v1zm-19-3h1zm25 50h1zm12-3v1zm-38 10h1zm39-13v1zm-21 11v1z"/>
		<path name="重庆市" fill-rule="evenodd" class="s5" d="m745 488l-3-4h-2v-2l-3-1 3-6-2-2h2v-2l4 2 3-1 1 3h2l4-6-1-1h4l2-5-1 1 4-4-2-4h2v-2l4 2 2 3h4l2 2 2 3-1 3-8 3-3-1-1 2h-2l2 2-2 4 4 1v2h2l2 4v4l-3 4-3-3v-2h-2v-4l-4 2-1-3h-2l-2 4-1-1-4 4-1-3-1 3zm22-19v1z"/>
		<path name="四川省" fill-rule="evenodd" class="s5" d="m699 494l-2 2-3-3 1-3-4-4-2 2v4l-2-3-2-21-3-4 2-2-4-8-8-6 2-2-1-1 3-2-3-3 2-4h6l4 10 7 3 1-3 2 4 1-1 2 2 6-2-1-5 4 2 1-5 1 5 5-5-2-4 5-3 3 5 7 1 2 4-1 3 3 3h6l1-3 1 3 2-2h2v2l7-1 1 3 3-1v2l1-1 3 2h4v2h-2l2 4-4 3v4l-4 1-4 7-3-1v-2l-3 1-3-2-3 3 1-1 1 3-4 3 4 4v2h4l1 4-3-3-3 3v2l1-1 4 2v4h-7l-1-3-6 2-2-2 2-2h-2v-4l-4 2 1 1-2 2-1-1v4l-5 5v8l-9 3-5-10z"/>
		<path name="贵州省" fill-rule="evenodd" class="s5" d="m770 497l-4 2 1 1-2 2 5-1v4h-2v4h2l-1 5-3-1-1 1h2l-2 2-2-1v2l-4-1 1 1-2 2-5-1v-2l-2-1-2 4-6 2 1 1-2 2-6-4-4 4-2-2 3-4h-2l-3-3 3-9-7 1-1-5 2-4 2 2 2-2 3 2 3-1 3-4h6v-3l-4-2-1 1v-2l3-3 3 3 1-3 1 3 4-4h2l1-3 3 1v2l4-2v4l2 1v2l1-1 1 3h2l1-3zm0 8h1z"/>
		<path name="云南省" fill-rule="evenodd" class="s5" d="m736 497l-3 3-4-2-2 2-2-2-2 6 2 3 4-2 2 1-2 9 3 3v2l-2 5h4l3 4 5-1 2 2-1 3h-2l-3 3-3-1-3 3 1 1-4 2-1-2-3 3-4-2-3 3-4-3-3 3-3-1-2 2 2 5-1 5-4-2 1-1-2-2-2 2h-4l-4-5-5-1 3-8h-4l-2-3 1-1-2-3 2-2h-6l-4 2-1-1 2-2-2-2 2-4-1-1 8-8-1-2h2v-10l-1-3-3 1-1-7 1-1 2 2 2-2-2-3 1-3 2 2v-4h2v8l2 2v-4l2-2 4 4-1 3 3 3 2-2 2 2-1 1 2 4 7 10 6-3v2l3-3-1-7 4-4 1-5 1 1 2-2v-2h4l-1 3h2l-2 2 2 2 3-1 1-2 2 4z"/>
		<path name="西藏自治区" fill-rule="evenodd" class="s5" d="m608 417l4 2-3 6 1 3h2v7l-2 2 6 7 4 2h6l5 3h6l5 3 8-2 5 3-1 1h3l-1 3 2 2 3-1 2 2 1-3 4 2-1-3h4l1-3 1 1-1-3 7 1 2 6 4 4-3 1 2 2 2 7-1 1 2 9h-2v4l-2-2v8l-4-2v2l-5-4-2 4 1 1-3 2-7-4h-4l-3 1v2l-3 2-5 1-6 6-11 1-1-5-4-2-2-4-2 2-2-2-8-2-7 9-2-2 1-5h-4l-2 2h-8l-3-3-4 2v-2l-2 2-2-4-3 1-2-4-3 1-5-5 1-1-3-1-2 2-12-11-5-1-2 4-4-4-4-2-1 1-5-5-3 1-3-3v-6l-3-2v-4l3-1 1 3h2l1-5-5-7v-4l4-4h4l2-2 1-5 1 1 2-2v-2l12 2 2-3h2v-2h4l1 3 9 1 9-5 3 2 2-2 1 1 3-5 8-2h10l9 3z"/>
		<path name="陕西省" fill-rule="evenodd" class="s5" d="m782 444l-2 2-1-2-9 1 2 1v2l1-1 3 3h-4l-2 2 1 7-10-5-3 1-3-3-1 1v-2l-3 1-1-3-6 1-2-2h-4 2l2-3-2-1 1-3h6l-2-3 2-2-1-2h2l-3-3 2-2-1-3 10 2v-4h7v-10l-3-3-1 1-7-4v-6l4-4 3 3h4l2-4h2v-5l7-7-1-1 1 1 2-2-1-1 4 2 4-3 1 3-2 3v4l-4 4 3 6-4 6 2 14-3 7 1 3z"/>
		<path name="甘肃省" fill-rule="evenodd" class="s5" d="m747 420h2l1-3-4-2-1-3 2-2v-4h4l3 3 9 4 1 4-2 2v6l-6-1-1 1 2 2-2 1-9-2 1 3-2 2 3 3h-2l1 7h-6v6h-3l-1 3h-6l-3-3 1-3-2-4-7-1-1-3-3-2-3 3h-2l3 4-1 2h-2l1 1-3 1v-4l-1 1-5-2-3-6 1-1 7 3 4-2-3-3v-2l9-12-7-16-8-2-4-5-1 1-3-3v3l-2-1-7-6 1-1-3-1-2 2-2-2-1 3-9-4v5l-3 3v2l-2-1-2 2-4-3h-9l-2-4-3 1-2-2h-4v-3h-4l-2 2-1-3 3-4 2-10 6-1 2-4 8-7 3 1 6-3 1-3-2-3 2-2 8-2 4 9v6l2 4 3 2v3l3-2v2l3-2 1 1v-2h8l1 3-2 4-5 4h3l6 5h2l1 4 7 3 2-2v-3l3-1 5 2 3-3 5-1 2 4-3 5-4 2v6h2l2 3 5 1 7 6v10l3 3h2l-1 1 4 2 1-5zm-5 2h1zm-26-8h1z"/>
		<path name="青海省" fill-rule="evenodd" class="s5" d="m717 414l1 3-3 3 1 2-4 2 1 1-4 4v2l3 3-5 2-5-3-2 2 4 5 4 2-1 4-1-2h-3l1 5-5 2-2-2-3 1 1-1-2-2-2 2-3-1-4-4-3-7-5-2-3 4 2 4-2 3 1 5h-2l1 3-1-1-1 3-3 1-1-1 1 3-4-2-1 3-2-2-3 1-2-2 1-2-7-5-8 2-2-2-9-1-8-4-3 1-4-2-6-7 2-2v-6l-3-3v-2l3-5-4-2h4l2-2 6 2 2-2v-3l-3-1v-2l5-3-7-6 1-6-3 1-1-2 5-3h5l12-5 3 1v2h4l2 2 3-1 2 5 9-1 4 3 2-2 2 1v-2l3-3-1-5h4l5 4 2-3 2 2 1-2h2l8 8h2v-2l5 4 1-1 2 4h4l2 2 1-1 6 10v4z"/>
		<path name="宁夏回族自治区" fill-rule="evenodd" class="s5" d="m748 406l-2 2v6l4 3-1 3h-4v5l-3-3h-2v-2h-2v-5l-2-4 1-1-7-7h-2l11-3 2-3v-8l2-4 1 1v-2l4-1 2 4-4 7 6 2 3 3-3 3v4zm-6 16v1z"/>
		<path name="新疆维吾尔自治区" fill-rule="evenodd" class="s5" d="m663 348l-2 2 2 3-3 4h-2l-2 3-1-2h-2l-6 5-4 6-6 1-5 17-18 5 1 3 3-1v6l6 6-5 4 3 3-2 4-6-2-2 2-10-4h-10l-3 2h-4l-5 5-3 1-2-2-12 5-5-1-3-3h-2l-5 5-12-2v2l-3 2-1 5-8 2-6-4 1-2-2-2v-4l-5 1-8-5-1 1-3-2 1-5-2-2-11-5h4l2-2-2-2 1-1-2-8-5-2-1 2-3-3 1-3-1 1-1-5 3-1-1-3 3-3 1 1 3-3h2l-1-2 3 1 4-2v4l2-2 3 1 5-7h7v-2h2l1-2 12-5 5-4-1-5 3-3-1-1 3-2v-3l-3-7v-6l-4-3 5-3 1 1 7-2 2-2 1 2 5 1 1-2-3-2v-2l6-18 7 3 9 1 4-2 2-4-2-9 4-4 2 1 5-5v-4l5 1 2-2v5l3 1-1 1 5 4v2l4 2 3-1 6 4 4 9h2l1 4-2 4 2 3-3 5 2 5 1-1 2 2 1-1 6 2h10l12 8h4l-1 3h2l3 9 4 5z"/>
		<path name="台湾省" fill-rule="evenodd" class="s5" d="m857 542l-2-10 2-1 2-6 5-6h6v6l-4 12-4 5-1 6-3-5zm25-28l1-1zm-30 19l-1 1zm-1-1l-1 1zm15 9h1zm5-25h1zm-14 28h1z"/>
		<path id="Layer" fill-rule="evenodd" class="s5" d="m810 543l-4 2-1-1h2v-2zm-3 2h1z"/>
		<path id="Layer" fill-rule="evenodd" class="s5" d="m803 546v-1z"/>
		<path id="Layer" fill-rule="evenodd" class="s5" d="m844 638l-1 2 2-6zm-51 62l-4 1 4.8-1.8zm0.8-0.8l0.2-0.2 3-1zm-33.8-27.2l1 8-1-1zm15-36l1.1-1.7-0.1 0.7zm1.1-1.7l0.9-5.3v4zm98.9-100.3l2-10zm-11 23l6-8zm-14 24l5-9zm-3 25v-9zm-28 65l5-7zm-46-67l-4-8 3 6z"/>
	</g>
</svg>